<svg xmlns="http://www.w3.org/2000/svg" viewBox="0 0 655.33 231.39"><defs><style>.cls-1{fill:#fff;}.cls-2{fill:#00fff0;}</style></defs><title>preferente-logo-bl-wh_1</title><g id="Layer_2" data-name="Layer 2"><g id="Layer_1-2" data-name="Layer 1"><path class="cls-1" d="M143.22,67.94A35.26,35.26,0,0,0,122.07,4.47H80.27V108h27.18V76.2h9.67l18,31.77h31.28Zm-22.8-15.16h-12.8v-21h12.8a10.52,10.52,0,0,1,0,21Z"/><path class="cls-1" d="M632.13,67.94A35.26,35.26,0,0,0,611,4.47H569.18V108h27.19V76.2H606l18,31.77h31.28Zm-22.8-15.16h-12.8v-21h12.8a10.52,10.52,0,0,1,0,21Z"/><polygon class="cls-1" points="166.39 66.67 269.89 108.81 269.89 81.77 207.08 56.25 269.89 30.67 269.89 3.63 166.39 45.77 166.39 66.67"/><polygon class="cls-2" points="166.39 153.01 229.2 178.59 166.39 204.1 166.39 231.15 269.89 189.01 269.89 168.11 166.39 125.97 166.39 153.01"/><polygon class="cls-1" points="304.53 70.44 304.53 4.47 277.5 4.47 277.5 108.06 304.53 108.06 304.53 107.97 307.42 107.97 347.44 52.45 347.44 107.97 374.46 107.97 374.46 4.47 352.02 4.47 304.53 70.44"/><polygon class="cls-1" points="490.02 107.97 561.65 108.06 561.65 80.79 516.28 80.79 516.28 67.93 554.77 67.93 554.77 44.92 516.28 44.92 516.28 31.74 561.65 31.74 561.65 4.47 490.02 4.47 490.02 107.97"/><path class="cls-2" d="M28.33,127.67H.38V231.39h28a51.86,51.86,0,1,0,0-103.72Zm.26,76.22H26.88V155h1.71a24.47,24.47,0,1,1,0,48.94Z"/><rect class="cls-2" x="163.79" y="176.03" width="0.22" height="0.44"/><polygon class="cls-2" points="87.15 231.17 158.69 231.22 158.69 203.99 113.41 203.99 113.41 191.13 151.9 191.13 151.9 168.12 113.41 168.12 113.41 154.94 158.78 154.94 158.78 127.67 87.15 127.67 87.15 231.17"/><polygon class="cls-1" points="27.15 71.94 54.17 71.94 54.17 44.91 27.21 44.91 27.21 31.82 72.74 31.82 72.74 4.47 0.06 4.47 0.06 44.91 27.21 44.91 27.21 71.91 0 71.91 0 107.97 27.15 107.97 27.15 71.94"/><path class="cls-1" d="M438.05,67.76h17.29V78.87a28.89,28.89,0,1,1,4.57-41.58l.11-.16L476,15a55.93,55.93,0,1,0,6.67,74.68V44.92L438.05,45Z"/><polygon class="cls-2" points="277.56 231.16 277.5 231.19 304.53 231.19 304.53 204.15 277.56 204.15 277.56 231.16"/></g></g></svg>