<svg xmlns="http://www.w3.org/2000/svg" xmlns:xlink="http://www.w3.org/1999/xlink" version="1.1" width="296.599pt" height="104.727pt" viewBox="0 0 296.599 104.727">
<defs>
<clipPath id="clip_0">
<path transform="matrix(1,0,0,-1,0,104.727)" d="M0 104.727H296.599V0H0Z"/>
</clipPath>
</defs>
<g id="layer_1" data-name="Layer 1">
<g id="layer_2" data-name="Layer 2">
<g clip-path="url(#clip_0)">
<path transform="matrix(1,0,0,-1,54.4997,23.888596)" d="M0 0H-5.792V9.525H0C2.63 9.525 4.763 7.393 4.763 4.763 4.763 2.132 2.63 0 0 0M10.32-6.859C14.198-3.949 16.707 .687 16.707 5.91 16.707 14.722 9.563 21.866 .751 21.866H-18.171V-24.979H-5.866V-10.6H-1.493L6.66-24.979H20.596 20.818Z" fill="#151717"/>
<path transform="matrix(1,0,0,-1,275.7809,23.888596)" d="M0 0H-5.792V9.525H0C2.63 9.525 4.763 7.393 4.763 4.763 4.763 2.132 2.63 0 0 0M10.32-6.859C14.198-3.949 16.707 .687 16.707 5.91 16.707 14.722 9.563 21.866 .751 21.866H-18.171V-24.979H-5.866V-10.6H-1.493L6.66-24.979H20.596 20.818Z" fill="#151717"/>
<path transform="matrix(1,0,0,-1,75.3073,30.174302)" d="M0 0 46.846-19.074V-6.833L18.417 4.716 46.846 16.292V28.533L0 9.458Z" fill="#151717"/>
<path transform="matrix(1,0,0,-1,75.3073,69.252399)" d="M0 0 28.43-11.576 0-23.125V-35.366L46.846-16.292V-6.833L0 12.241Z" fill="#71cbd1"/>
<path transform="matrix(1,0,0,-1,137.8278,31.879799)" d="M0 0V29.857H-12.23V-17.025H0V-16.988H1.31L19.42 8.14V-16.988H31.65V29.857H21.496Z" fill="#151717"/>
<path transform="matrix(1,0,0,-1,221.7839,48.8681)" d="M0 0 32.417-.037V12.305H11.885V18.125H29.304V28.538H11.885V34.504H32.417V46.846H0Z" fill="#151717"/>
<path transform="matrix(1,0,0,-1,12.9382,92.2792)" d="M0 0H-.773V22.149H0C6.117 22.149 11.075 17.191 11.075 11.075 11.075 4.958 6.117 0 0 0M-.114 34.497H-12.765V-12.448H-.114C12.85-12.448 23.358-1.939 23.358 11.024 23.358 23.988 12.85 34.497-.114 34.497" fill="#71cbd1"/>
<path transform="matrix(1,0,0,-1,0,104.727)" d="M74.132 24.86H74.231V25.058H74.132Z" fill="#71cbd1"/>
<path transform="matrix(1,0,0,-1,39.446,104.628398)" d="M0 0 32.376-.023V12.305H11.884V18.126H29.303V28.538H11.884V34.504H32.416V46.846H0Z" fill="#71cbd1"/>
<path transform="matrix(1,0,0,-1,12.2878,32.5605)" d="M0 0H12.23V12.236H.027V18.16H20.633V30.539H-12.261V12.236H.026V.014H-12.288V-16.307H0Z" fill="#151717"/>
<path transform="matrix(1,0,0,-1,198.2624,30.6669)" d="M0 0H7.824V-5.028C5.624-6.709 2.875-7.708-.107-7.708-7.329-7.708-13.184-1.854-13.184 5.368-13.184 12.59-7.329 18.444-.107 18.444 3.903 18.444 7.491 16.636 9.89 13.792L9.943 13.861 17.172 23.902C12.653 28.094 6.61 30.667-.039 30.667-14.026 30.667-25.365 19.329-25.365 5.342-25.365-8.645-14.026-19.983-.039-19.983 8.226-19.983 15.564-16.022 20.187-9.897V10.338L0 10.303Z" fill="#151717"/>
<path transform="matrix(1,0,0,-1,125.6237,104.6206)" d="M0 0-.026-.014H12.204V12.222H0Z" fill="#71cbd1"/>
</g>
</g>
</g>
</svg>
