<svg width="77" height="87" viewBox="0 0 77 87" fill="none" xmlns="http://www.w3.org/2000/svg">
<g clip-path="url(#clip0)">
<path fill-rule="evenodd" clip-rule="evenodd" d="M45.892 9.96177L63.682 20.2769C64.1956 19.7311 64.785 19.2628 65.4319 18.8862C69.1213 16.7561 73.8273 18.0208 75.9704 21.7261C78.0915 25.4314 76.8321 30.157 73.1425 32.3092C72.5003 32.6805 71.8084 32.9572 71.0878 33.1307V53.7685C71.8005 53.9424 72.4849 54.2172 73.1205 54.5847C76.8321 56.7368 78.0915 61.4627 75.9484 65.168C73.8273 68.873 69.0993 70.1377 65.4097 68.0079C64.6949 67.5961 64.0509 67.0711 63.5027 66.4533L45.821 76.7049C46.0799 77.4923 46.2114 78.3163 46.2105 79.1455C46.2105 83.4054 42.7642 86.889 38.5 86.889C34.2358 86.889 30.7895 83.4274 30.7895 79.1455C30.7895 78.3843 30.8983 77.6492 31.1014 76.9547L13.3162 66.6426C12.8082 67.1776 12.2271 67.6372 11.5903 68.0079C7.87865 70.1377 3.17263 68.873 1.05152 65.168C-1.06929 61.4627 0.19008 56.7368 3.87946 54.5847C4.51504 54.2171 5.19945 53.9422 5.91214 53.7682V33.1307C5.19159 32.9572 4.49963 32.6805 3.8575 32.3092C0.167822 30.1794 -1.09155 25.4314 1.02956 21.7261C3.15067 18.0208 7.87835 16.7561 11.568 18.8862C12.2114 19.2607 12.7979 19.7261 13.3096 20.2681L31.1047 9.95029C30.8949 9.2353 30.7887 8.4937 30.7895 7.74832C30.7895 3.46672 34.2358 0.00518799 38.5 0.00518799C42.7642 0.00518799 46.2105 3.46641 46.2105 7.74832C46.2105 8.51795 46.0992 9.2607 45.892 9.96177ZM44.0386 13.14L61.871 23.4792C61.587 24.476 61.5056 25.52 61.6315 26.549C61.7574 27.5781 62.0882 28.5712 62.604 29.4693C63.6895 31.3656 65.4578 32.6227 67.4204 33.1126V53.7761C67.3202 53.8005 67.2207 53.8274 67.1217 53.8558L43.8313 13.3469C43.9017 13.2792 43.9709 13.2103 44.0386 13.1403V13.14ZM33.1734 13.3514L9.88336 53.8597C9.78265 53.8305 9.68137 53.8033 9.57957 53.7782V33.1126C11.5422 32.6227 13.3105 31.3656 14.396 29.4693C14.9128 28.5694 15.2439 27.5743 15.3693 26.5431C15.4947 25.512 15.412 24.4661 15.126 23.4678L32.9533 13.1315C33.0252 13.2061 33.0985 13.2795 33.1734 13.3511V13.3514ZM40.6545 15.1864L63.9391 55.6857C63.4058 56.1968 62.9486 56.7824 62.5817 57.4246C62.2158 58.0628 61.9421 58.7502 61.769 59.4659H15.2315C15.0582 58.7501 14.7844 58.0628 14.4182 57.4246C14.0501 56.7868 13.5938 56.2047 13.0629 55.6956L36.3521 15.1882C37.0503 15.3901 37.7734 15.4922 38.5 15.4915C39.248 15.4915 39.9708 15.3851 40.6545 15.1864ZM44.2022 73.9291L61.9188 63.6568C61.8657 63.4891 61.8182 63.3197 61.7765 63.1488H15.2216C15.197 63.2494 15.1702 63.349 15.1416 63.4484L32.9449 73.7711C33.6638 73.0203 34.5266 72.4235 35.4813 72.0164C36.436 71.6093 37.4628 71.4005 38.5 71.4024C39.5734 71.4005 40.6354 71.6244 41.6174 72.0595C42.5995 72.4947 43.48 73.1315 44.2022 73.9291Z" fill="#E535AB"/>
</g>
<defs>
<clipPath id="clip0">
<rect width="77" height="87" fill="white"/>
</clipPath>
</defs>
</svg>
