<svg width="83" height="83" viewBox="0 0 83 83" fill="none" xmlns="http://www.w3.org/2000/svg">
<path d="M0 0H83V83H0V0Z" fill="#F7DF1E"/>
<path d="M21.8238 69.3608L28.1753 65.5168C29.4008 67.6894 30.5155 69.5278 33.1893 69.5278C35.7522 69.5278 37.3685 68.5253 37.3685 64.6256V38.1051H45.1682V64.7358C45.1682 72.8144 40.4327 76.4916 33.5236 76.4916C27.284 76.4916 23.6621 73.2602 21.8235 69.3601L21.8238 69.3608ZM49.4048 68.5249L55.7556 64.848C57.4276 67.5782 59.6005 69.5838 63.4444 69.5838C66.6766 69.5838 68.7373 67.9679 68.7373 65.7393C68.7373 63.0651 66.6201 62.1177 63.0544 60.5582L61.1049 59.7218C55.4774 57.3268 51.7447 54.318 51.7447 47.9666C51.7447 42.1164 56.2017 37.659 63.1662 37.659C68.1248 37.659 71.6906 39.3864 74.2532 43.8992L68.18 47.7996C66.8426 45.4039 65.3946 44.4569 63.1659 44.4569C60.8815 44.4569 59.4329 45.9055 59.4329 47.7996C59.4329 50.1395 60.8815 51.0872 64.2242 52.5358L66.174 53.3713C72.8043 56.2131 76.537 59.11 76.537 65.6281C76.537 72.6487 71.0214 76.4926 63.6114 76.4926C56.3687 76.4926 51.6886 73.0384 49.4045 68.5253" fill="black"/>
</svg>
