<svg width="77" height="85" viewBox="0 0 77 85" fill="none" xmlns="http://www.w3.org/2000/svg">
<path d="M35.0346 1.07908C37.1281 -0.122075 39.855 -0.1275 41.9468 1.07908C52.4704 7.03933 62.9972 12.9902 73.5189 18.9541C75.4979 20.0715 76.8217 22.2791 76.8015 24.5647V60.4239C76.8163 62.8042 75.3617 65.0645 73.2738 66.1565C62.7849 72.0839 52.3013 78.0186 41.8142 83.946C39.6773 85.1706 36.8957 85.0763 34.8256 83.7513C31.681 81.924 28.531 80.1059 25.3861 78.2805C24.7435 77.8965 24.0191 77.5909 23.5653 76.9663C23.9664 76.4244 24.6836 76.3568 25.2664 76.1202C26.579 75.7019 27.7846 75.0303 28.9905 74.3786C29.2954 74.1695 29.6677 74.2496 29.96 74.4368C32.649 75.9822 35.3142 77.5725 38.0122 79.1031C38.5878 79.4361 39.1706 78.994 39.6626 78.7191C49.9555 72.8881 60.261 67.0792 70.5521 61.2464C70.9334 61.0626 71.1442 60.6569 71.1132 60.2382C71.1204 48.409 71.115 36.5777 71.1168 24.7486C71.1604 24.2735 70.8862 23.8368 70.4577 23.6424C60.0051 17.7421 49.5579 11.8328 39.1072 5.93101C38.9261 5.80624 38.7116 5.73929 38.4919 5.73897C38.2721 5.73865 38.0575 5.80496 37.876 5.9292C27.4253 11.8328 16.9799 17.7475 6.52914 23.6475C6.10213 23.8422 5.81554 24.2717 5.86637 24.7486C5.86817 36.5777 5.86637 48.409 5.86637 60.24C5.84824 60.4443 5.89301 60.6492 5.99462 60.8272C6.09624 61.0052 6.24983 61.1477 6.43472 61.2356C9.22355 62.8207 12.016 64.3948 14.8066 65.9745C16.3788 66.8227 18.3091 67.3267 20.0412 66.6768C21.5697 66.1273 22.6412 64.5639 22.612 62.9371C22.6264 51.1769 22.6048 39.415 22.6228 27.6567C22.5846 27.1346 23.0787 26.7033 23.5851 26.7524C24.9251 26.7434 26.2669 26.7343 27.6069 26.756C28.1662 26.7434 28.5511 27.3055 28.482 27.8315C28.4766 39.6661 28.4964 51.501 28.473 63.3356C28.4766 66.4896 27.1838 69.9216 24.2732 71.4648C20.6874 73.3267 16.2555 72.9318 12.7131 71.1465C9.64636 69.6123 6.7198 67.8017 3.70753 66.1581C1.61425 65.072 0.166905 62.8027 0.18164 60.4242V24.5647C0.159688 22.2317 1.53606 19.984 3.57672 18.883C14.0639 12.9507 24.5492 7.01401 35.0346 1.07908Z" fill="#8CC84B"/>
<path d="M44.1835 25.919C48.7574 25.6239 53.654 25.7442 57.7699 28.0027C60.9565 29.7334 62.7233 33.3658 62.7795 36.9144C62.6905 37.3931 62.1913 37.6571 61.7354 37.6243C60.4083 37.6225 59.081 37.6423 57.7539 37.6152C57.191 37.6369 56.8638 37.1167 56.7931 36.6178C56.4118 34.9199 55.488 33.2383 53.8936 32.4194C51.4461 31.1911 48.6083 31.2529 45.9394 31.2785C43.9911 31.3822 41.896 31.5513 40.2454 32.6997C38.9781 33.5696 38.5932 35.3256 39.0455 36.7399C39.4719 37.7554 40.6414 38.083 41.5983 38.385C47.1104 39.83 52.9515 39.6863 58.3584 41.5879C60.5969 42.3632 62.7867 43.8703 63.5529 46.2195C64.5552 49.3681 64.1159 53.1316 61.8809 55.6593C60.0685 57.7394 57.4289 58.8715 54.7961 59.4864C51.2937 60.2692 47.6589 60.2891 44.102 59.9416C40.7575 59.5594 37.277 58.6786 34.6951 56.3945C32.4872 54.4729 31.4088 51.479 31.5159 48.5893C31.5415 48.1013 32.0262 47.761 32.4926 47.8011C33.829 47.7902 35.1654 47.7866 36.5018 47.8029C37.0355 47.7646 37.4313 48.227 37.4586 48.7312C37.7052 50.3489 38.3118 52.0468 39.7191 53.0059C42.4352 54.7623 45.8432 54.642 48.9532 54.6912C51.5297 54.5766 54.422 54.542 56.5246 52.835C57.6339 51.8615 57.9626 50.2326 57.6628 48.8313C57.338 47.6482 56.1033 47.0969 55.043 46.7364C49.6015 45.0111 43.6952 45.6372 38.3064 43.6861C36.1186 42.9111 34.0031 41.4459 33.1626 39.1931C31.9898 36.0047 32.5272 32.061 34.9964 29.6186C37.4039 27.1892 40.8793 26.2536 44.1835 25.9187V25.919Z" fill="#8CC84B"/>
</svg>
