<svg width="85" height="76" viewBox="0 0 85 76" fill="none" xmlns="http://www.w3.org/2000/svg">
<path d="M0.250351 37.9174C0.250351 44.2667 6.47999 50.1937 16.3011 53.5347C14.3398 63.3609 15.9498 71.2811 21.3265 74.367C26.8529 77.5392 35.0863 75.3434 42.901 68.5447C50.5185 75.0688 58.2169 77.6363 63.589 74.5415C69.1104 71.3604 70.7895 62.9032 68.7741 52.7701C79.0036 49.4043 84.7256 44.3503 84.7256 37.9174C84.7256 31.7155 78.4846 26.3502 68.7957 23.0306C70.9654 12.4789 69.127 4.75099 63.5276 1.53751C58.1293 -1.56065 50.3412 1.13967 42.6118 7.83428C34.5703 0.728607 26.8592 -1.4407 21.2657 1.7817C15.8724 4.88878 14.3335 12.953 16.3011 22.9609C6.81135 26.2537 0.250351 31.7406 0.250351 37.9174Z" fill="white"/>
<path d="M66.7438 26.3271C65.9453 26.0545 65.14 25.8019 64.3287 25.5697C64.4633 25.0256 64.5877 24.4791 64.7019 23.9304C66.53 15.0985 65.3347 7.98363 61.2529 5.64151C57.3394 3.39521 50.9388 5.73733 44.4744 11.3359C43.8374 11.8888 43.2146 12.4577 42.6065 13.0419C42.1992 12.6534 41.7848 12.2725 41.3634 11.8993C34.5886 5.91246 27.7978 3.38993 23.7203 5.73899C19.8105 7.99156 18.6524 14.6806 20.2982 23.0505C20.462 23.8793 20.6468 24.7039 20.8527 25.5234C19.8918 25.7951 18.9638 26.0845 18.076 26.3925C10.1335 29.1483 5.06094 33.4677 5.06094 37.9478C5.06094 42.5752 10.506 47.2165 18.7792 50.0305C19.4501 50.2576 20.1265 50.468 20.8079 50.6616C20.5865 51.5445 20.39 52.4334 20.2185 53.3272C18.6494 61.5517 19.8749 68.0821 23.7744 70.3208C27.8021 72.6322 34.562 70.2564 41.1446 64.5299C41.6649 64.0772 42.1871 63.5971 42.7101 63.0939C43.3687 63.7263 44.045 64.3404 44.738 64.9354C51.1141 70.3958 57.4111 72.6008 61.3074 70.3562C65.3314 68.0378 66.6389 61.0224 64.941 52.4869C64.8115 51.835 64.6604 51.1691 64.4911 50.4911C64.9659 50.3516 65.4317 50.2076 65.8862 50.0576C74.4868 47.2218 80.0823 42.637 80.0823 37.9478C80.0823 33.4516 74.8464 29.103 66.7438 26.3271Z" fill="#53C1DE"/>
<path d="M64.8782 47.0301C64.4681 47.1653 64.0471 47.2958 63.6182 47.4223C62.6686 44.4309 61.387 41.2498 59.8192 37.9636C61.3156 34.7551 62.5474 31.615 63.4704 28.6427C64.2377 28.8641 64.9828 29.0971 65.7006 29.3433C72.6431 31.7214 76.8776 35.2382 76.8776 37.9478C76.8776 40.8341 72.3041 44.5813 64.8785 47.0301H64.8782ZM61.7971 53.1065C62.5477 56.8807 62.655 60.2931 62.1576 62.9607C61.7107 65.3577 60.8123 66.9557 59.7014 67.5957C57.3371 68.9578 52.2808 67.1873 46.8284 62.5176C46.2032 61.9823 45.5734 61.4106 44.9419 60.8059C47.0558 58.5048 49.1684 55.8296 51.2303 52.859C54.8572 52.5388 58.2836 52.015 61.391 51.3003C61.5437 51.9149 61.6799 52.5173 61.7971 53.1065ZM30.6372 67.3604C28.3274 68.1723 26.4877 68.1954 25.3758 67.5574C23.0091 66.1993 22.0257 60.9553 23.3674 53.922C23.5269 53.0908 23.7096 52.2642 23.9152 51.4431C26.988 52.1195 30.3895 52.6062 34.0251 52.8996C36.1006 55.8065 38.2743 58.4783 40.4649 60.8182C39.9994 61.2664 39.5228 61.7031 39.0356 62.128C36.1248 64.6605 33.208 66.4567 30.6376 67.3604H30.6372ZM19.8158 47.0123C16.1576 45.7678 13.1366 44.1507 11.0658 42.3862C9.20518 40.8001 8.26557 39.2256 8.26557 37.9478C8.26557 35.2293 12.3384 31.7614 19.1312 29.4044C19.9838 29.1098 20.8448 28.8402 21.7133 28.5958C22.6522 31.6348 23.8837 34.8123 25.3698 38.0254C23.8644 41.2865 22.6154 44.5145 21.6678 47.5892C21.0458 47.412 20.4283 47.2197 19.8158 47.0123ZM23.4434 22.4378C22.0333 15.2664 22.9696 9.85687 25.3259 8.49944C27.836 7.05346 33.3857 9.11537 39.2351 14.2844C39.609 14.6148 39.9845 14.9608 40.3607 15.3186C38.1813 17.6479 36.0275 20.2996 33.97 23.1896C30.4417 23.5151 27.0641 24.0378 23.959 24.738C23.7678 23.9756 23.5958 23.2085 23.4434 22.4375V22.4378ZM55.8041 30.3904C55.0707 29.1296 54.3101 27.8847 53.5229 26.6565C55.9167 26.9572 58.2099 27.357 60.3634 27.8464C59.717 29.9086 58.9112 32.0651 57.9623 34.2757C57.2689 32.9664 56.5494 31.6711 55.8041 30.3904ZM42.6074 17.598C44.0856 19.1916 45.5661 20.9714 47.0223 22.9021C44.0683 22.7632 41.1094 22.7625 38.1554 22.9001C39.613 20.9872 41.1061 19.2102 42.6074 17.598ZM29.3261 30.4122C28.5901 31.6827 27.8841 32.9701 27.2085 34.2733C26.2752 32.0703 25.4767 29.9043 24.8246 27.8127C26.9651 27.3359 29.2477 26.9463 31.626 26.6506C30.8299 27.8864 30.063 29.1406 29.3261 30.4122ZM31.6944 49.4727C29.2374 49.1997 26.9203 48.83 24.7804 48.3664C25.4428 46.2377 26.2589 44.0251 27.2121 41.7749C27.8906 43.0791 28.5997 44.3673 29.339 45.6383C30.0934 46.9349 30.8788 48.2134 31.6944 49.4727ZM42.6961 58.523C41.1771 56.8916 39.6621 55.0874 38.1823 53.1468C39.6186 53.203 41.0832 53.2314 42.5716 53.2314C44.1009 53.2314 45.6125 53.1973 47.1003 53.1313C45.6394 55.1073 44.1643 56.9141 42.6961 58.523ZM57.9928 41.6602C58.9955 43.9349 59.8408 46.1356 60.5121 48.2283C58.3368 48.7223 55.9884 49.1201 53.5139 49.4155C54.3069 48.1644 55.0747 46.8977 55.8171 45.6162C56.5717 44.3138 57.2971 42.9948 57.9928 41.6602ZM53.0408 44.0228C51.9043 45.9876 50.704 47.915 49.4417 49.8021C47.2158 49.9604 44.9156 50.042 42.5716 50.042C40.2372 50.042 37.9662 49.9697 35.7792 49.8286C34.4841 47.9459 33.2611 46.0151 32.1127 44.0403C30.9697 42.0761 29.902 40.0693 28.9121 38.0244C29.8995 35.9789 30.964 33.9711 32.1031 32.0052V32.0059C33.2419 30.0396 34.4553 28.1171 35.7407 26.2425C37.9718 26.0746 40.2594 25.9867 42.5719 25.9867C44.8947 25.9867 47.1853 26.0753 49.4158 26.2444C50.6882 28.1162 51.8938 30.032 53.0305 31.9884C54.1735 33.9499 55.2521 35.9479 56.2646 37.9792C55.2626 40.0312 54.1874 42.047 53.0411 44.0228H53.0408ZM59.6522 8.40461C62.1643 9.84662 63.1414 15.6613 61.563 23.2867C61.4595 23.7835 61.3471 24.2783 61.2257 24.771C58.1133 24.0563 54.7334 23.5243 51.1947 23.1939C49.1332 20.2725 46.9974 17.6161 44.8532 15.317C45.4151 14.7779 45.9903 14.2528 46.5784 13.7421C52.1171 8.94487 57.2936 7.05082 59.6522 8.40461Z" fill="white"/>
<path d="M42.5716 31.2806C46.2716 31.2806 49.2707 34.2658 49.2707 37.9478C49.2707 41.6302 46.2716 44.6153 42.5716 44.6153C38.8719 44.6153 35.8725 41.6302 35.8725 37.9478C35.8725 34.2658 38.8719 31.2806 42.5716 31.2806Z" fill="#53C1DE"/>
</svg>
