<svg width="50" height="30" viewBox="0 0 50 30" fill="none" xmlns="http://www.w3.org/2000/svg">
<path fill-rule="evenodd" clip-rule="evenodd" d="M22.0732 7.82149H23.0752L27.5153 13.979L32.0537 7.82149L38.2267 0L28.0851 14.6262L33.3111 21.823H32.2698L27.5153 15.2733L22.7412 21.823H21.7195L26.9849 14.6262L22.0732 7.82149ZM11.7979 7.82149H21.2284V8.56667H12.6624V14.1751H20.7175V14.9203H12.6624V21.0778H21.3266V21.823H11.7979V7.82149ZM33.6844 7.82149V8.56667H38.6158V21.823H39.4802V8.56667H44.4312V7.82149H33.6844ZM0 7.82149H1.08057L15.981 29.9887L9.82339 21.823L0.903752 8.88043L0.864459 21.823H0V7.82149ZM44.035 20.5411C44.035 20.7169 44.1675 20.853 44.3441 20.853C44.5228 20.853 44.6532 20.7169 44.6532 20.5411C44.6532 20.3653 44.5228 20.2292 44.3441 20.2292C44.1675 20.2292 44.035 20.3653 44.035 20.5411ZM45.1935 20.0325H45.6561C45.6624 20.2816 45.8453 20.449 46.1145 20.449C46.4151 20.449 46.5854 20.269 46.5854 19.932V17.7971H47.0564V19.9341C47.0564 20.5411 46.7032 20.8906 46.1187 20.8906C45.5699 20.8906 45.1935 20.5516 45.1935 20.0325ZM48.1392 20.0053H47.6725C47.7061 20.5453 48.1582 20.8906 48.831 20.8906C49.5501 20.8906 50 20.5285 50 19.9509C50 19.4967 49.7435 19.2455 49.1211 19.1011L48.7868 19.0195C48.3915 18.9274 48.2317 18.8039 48.2317 18.5883C48.2317 18.3162 48.4799 18.1383 48.852 18.1383C49.2052 18.1383 49.4491 18.312 49.4933 18.5904H49.9516C49.9243 18.0818 49.4744 17.7239 48.8583 17.7239C48.196 17.7239 47.7545 18.0818 47.7545 18.6197C47.7545 19.0634 48.0047 19.3271 48.5534 19.4548L48.9445 19.549C49.3461 19.6432 49.5227 19.7813 49.5227 20.0116C49.5227 20.2795 49.2452 20.4741 48.8667 20.4741C48.4609 20.4741 48.1792 20.292 48.1392 20.0053Z" fill="black"/>
</svg>