<svg width="50" height="45" viewBox="0 0 50 45" fill="none" xmlns="http://www.w3.org/2000/svg">
<path d="M0.147461 22.4511C0.147461 26.2104 3.81201 29.7199 9.58947 31.6981C8.43576 37.5163 9.3827 42.2058 12.5456 44.0331C15.7967 45.9111 20.6401 44.6111 25.2371 40.5858C29.7181 44.4486 34.247 45.9688 37.4069 44.1363C40.6549 42.2528 41.6428 37.2453 40.4572 31.2454C46.4747 29.2524 49.8408 26.2599 49.8408 22.4511C49.8408 18.7789 46.1694 15.602 40.4699 13.6365C41.7463 7.3887 40.6648 2.81303 37.371 0.910274C34.1954 -0.924098 29.6139 0.674744 25.067 4.63872C20.3367 0.431273 15.8004 -0.853313 12.5098 1.05499C9.33733 2.89457 8.43203 7.66926 9.58947 13.5952C4.00709 15.5449 0.147461 18.7936 0.147461 22.4511Z" fill="white"/>
<path d="M39.263 15.5884C38.8052 15.4305 38.3308 15.2812 37.8423 15.1399C37.9226 14.8117 37.9963 14.4877 38.0618 14.1693C39.1372 8.94001 38.4341 4.72728 36.0331 3.34027C33.7308 2.0103 29.9656 3.397 26.1629 6.7121C25.7973 7.03088 25.4306 7.36839 25.064 7.72211C24.8198 7.48808 24.576 7.26192 24.3328 7.0456C20.3475 3.50087 16.3528 2.00708 13.9541 3.3981C11.6541 4.73192 10.9729 8.69229 11.9409 13.6481C12.0344 14.1268 12.1437 14.6156 12.2672 15.1126C11.7019 15.2734 11.1561 15.4448 10.6339 15.6271C5.96151 17.2589 2.97754 19.8164 2.97754 22.4692C2.97754 25.2089 6.18084 27.957 11.0475 29.6233C11.4315 29.7548 11.83 29.8791 12.2407 29.9971C12.1074 30.5347 11.9914 31.0614 11.8941 31.5752C10.9711 36.445 11.6919 40.3118 13.9859 41.6372C16.3553 43.006 20.3319 41.5991 24.2041 38.2084C24.5101 37.9404 24.8173 37.6562 25.125 37.3582C25.5238 37.743 25.922 38.1071 26.3181 38.4486C30.0687 41.6818 33.7731 42.9873 36.065 41.6582C38.4321 40.2856 39.2013 36.1317 38.2026 31.0778C38.1263 30.6918 38.0376 30.2975 37.9379 29.8962C38.2171 29.8135 38.4913 29.7281 38.7586 29.6393C43.8179 27.9601 47.1097 25.2455 47.1097 22.4692C47.1097 19.8068 44.0295 17.2321 39.263 15.5884Z" fill="#53C1DE"/>
<path fill-rule="evenodd" clip-rule="evenodd" d="M36.2149 13.7881C37.1435 9.27319 36.5687 5.83014 35.0909 4.97642C33.7035 4.17495 30.6583 5.29638 27.4002 8.13674C27.0629 8.4308 26.7243 8.74242 26.3852 9.06923C27.6465 10.4307 28.9032 12.0034 30.1158 13.7333C32.1974 13.9289 34.1856 14.2438 36.0166 14.667C36.089 14.3696 36.1557 14.0762 36.2149 13.7881ZM14.8982 5.0326C13.5121 5.83636 12.9613 9.0394 13.7907 13.2854C13.8775 13.7299 13.9792 14.1846 14.094 14.6474C15.9207 14.2329 17.9076 13.9233 19.9831 13.7306C21.1934 12.0195 22.4604 10.4493 23.7427 9.07009C23.5212 8.85826 23.3004 8.6535 23.0805 8.45787C19.6394 5.39718 16.3746 4.17636 14.8982 5.0326ZM11.6567 27.8362C9.5048 27.0994 7.72766 26.1418 6.50952 25.0969C5.41494 24.1579 4.8623 23.2256 4.8623 22.4692C4.8623 20.8594 7.25814 18.8061 11.254 17.4105C11.7388 17.2412 12.2464 17.0816 12.7731 16.9317C13.3253 18.7312 14.0497 20.6126 14.924 22.5151C14.0384 24.4459 13.3037 26.3573 12.746 28.1779C12.3706 28.0698 12.0068 27.956 11.6567 27.8362ZM38.1652 27.8467C37.9239 27.9267 37.6763 28.0041 37.424 28.0791C36.8654 26.3078 36.1116 24.4243 35.1892 22.4784C36.0695 20.5788 36.7941 18.7194 37.337 16.9596C37.7885 17.0905 38.2266 17.2285 38.6489 17.3741C42.7328 18.7825 45.2239 20.8647 45.2239 22.4692C45.2239 24.1782 42.5336 26.3967 38.1652 27.8467ZM36.3526 31.4446C36.7943 33.6794 36.8574 35.6998 36.5648 37.2793C36.302 38.6986 35.7734 39.6449 35.1198 40.0238C33.729 40.8303 30.7548 39.782 27.5471 37.017C27.1794 36.7 26.809 36.3615 26.4375 36.0033C27.681 34.641 28.9238 33.0571 30.1368 31.2982C32.2702 31.1085 34.2859 30.7985 36.1138 30.3752C36.2038 30.739 36.2838 31.0958 36.3526 31.4446ZM14.9274 40.0011C15.5816 40.379 16.6639 40.3652 18.0227 39.8845C19.5349 39.3494 21.2508 38.2857 22.963 36.7864C23.2419 36.5421 23.5223 36.2829 23.8039 36.0107C22.5152 34.6254 21.2365 33.0433 20.0154 31.3221C17.8768 31.1484 15.876 30.8602 14.0681 30.4598C13.9441 30.9606 13.8365 31.4505 13.746 31.9275C12.9566 36.0921 13.5354 39.1968 14.9274 40.0011ZM32.8273 17.9942C32.3906 17.2386 31.9423 16.5009 31.4852 15.7833C32.8933 15.9616 34.2424 16.1983 35.5094 16.488C35.129 17.7091 34.6549 18.9859 34.0969 20.2948C33.6966 19.5334 33.2731 18.7658 32.8273 17.9942ZM27.6612 13.5604C26.8046 12.4172 25.9338 11.3635 25.0642 10.4198C24.181 11.3744 23.3026 12.4267 22.4452 13.5593C23.303 13.5191 24.1704 13.4984 25.0431 13.4984C25.9242 13.4984 26.798 13.5196 27.6612 13.5604ZM17.2514 18.0073C16.8152 18.765 16.3996 19.5285 16.0056 20.2933C15.4566 18.989 14.9869 17.7065 14.6032 16.468C15.8624 16.1857 17.2051 15.9549 18.6043 15.78C18.1408 16.5042 17.6888 17.2474 17.2514 18.0071V18.0073ZM14.5772 28.6381C15.8361 28.9126 17.199 29.1315 18.6446 29.293C18.1691 28.554 17.706 27.7962 17.2589 27.0226H17.2588C16.82 26.2633 16.4028 25.4995 16.0077 24.7352C15.4471 26.0676 14.967 27.3775 14.5772 28.6381ZM25.1164 34.6517C24.2228 33.6859 23.3315 32.6176 22.461 31.4684C23.3061 31.5017 24.1676 31.5187 25.0431 31.5187C25.9427 31.5187 26.8319 31.4983 27.7072 31.4593C26.8478 32.6291 25.9801 33.6991 25.1164 34.6517ZM35.5968 28.5562C35.202 27.3172 34.7047 26.014 34.1149 24.6672C33.7112 25.4466 33.2844 26.2287 32.8348 27.0096C32.3904 27.7815 31.9382 28.5319 31.4801 29.2592C32.9357 29.0842 34.3172 28.8487 35.5968 28.5562ZM31.2017 26.0661C30.5119 27.2644 29.8036 28.4082 29.0846 29.4879C27.775 29.5817 26.4221 29.6301 25.0431 29.6301C23.6698 29.6301 22.3339 29.5873 21.0475 29.5037C20.2995 28.4098 19.5758 27.2626 18.8903 26.0764H18.8905C18.2068 24.8936 17.5776 23.7007 17.0075 22.5145C17.5775 21.3255 18.205 20.1313 18.8848 18.9506L18.8846 18.9508C19.5662 17.7669 20.2834 16.6252 21.0245 15.5382C22.337 15.4388 23.6829 15.387 25.0431 15.387H25.0431C26.4094 15.387 27.757 15.4392 29.0691 15.5395C29.7989 16.6185 30.5113 17.7565 31.1955 18.9406C31.8875 20.1379 32.5232 21.3242 33.098 22.4877C32.5249 23.6711 31.8907 24.8693 31.2017 26.0661Z" fill="white"/>
<path d="M25.0434 18.5215C27.2198 18.5215 28.9842 20.2889 28.9842 22.4692C28.9842 24.6494 27.2198 26.4169 25.0434 26.4169C22.867 26.4169 21.1025 24.6494 21.1025 22.4692C21.1025 20.2889 22.867 18.5215 25.0434 18.5215Z" fill="#53C1DE"/>
</svg>