<svg width="50" height="38" viewBox="0 0 50 38" fill="none" xmlns="http://www.w3.org/2000/svg">
<path fill-rule="evenodd" clip-rule="evenodd" d="M35.3388 28.7248C35.1802 28.6104 35.2066 28.2408 35.7281 27.0895C35.9328 26.6375 36.4 25.8764 37.2121 25.1492C37.3062 25.4483 37.3636 25.7351 37.362 26.0021C37.3515 27.7834 36.0973 28.4486 35.3388 28.7248ZM28.6629 30.2669C28.4503 30.3796 28.2554 30.4504 28.1648 30.3958C28.0984 30.3555 28.2525 30.2071 28.2525 30.2071C28.2525 30.2071 29.3365 29.0255 29.7634 28.4874C30.0118 28.1746 30.2997 27.8032 30.6135 27.3877C30.6161 27.4293 30.6174 27.4704 30.6174 27.5111C30.6142 28.9268 29.2647 29.8826 28.6629 30.2669ZM19.997 26.0769C19.4955 27.3157 18.446 30.4851 17.8072 30.3152C17.2589 30.1694 16.9249 27.7602 17.6977 25.3891C18.0867 24.1956 18.9176 22.7694 19.4057 22.2159C20.1916 21.3251 21.0568 21.0338 21.2671 21.3949C21.535 21.8551 20.3114 25.3003 19.997 26.0769ZM9.50794 33.3026C8.06816 34.8943 6.05666 35.4958 5.19407 34.9891C4.26268 34.4419 4.63157 32.0986 6.39845 30.4096C7.47537 29.3803 8.8656 28.4322 9.78786 27.8483C9.99772 27.7203 10.3061 27.5323 10.6808 27.3048C10.743 27.2689 10.778 27.2491 10.778 27.2491L10.7766 27.2467C10.849 27.2028 10.9231 27.1578 10.9996 27.1115C11.6425 29.5156 11.0192 31.6321 9.50794 33.3026ZM43.0125 21.8566C41.2657 21.8659 39.7527 22.2908 38.4845 22.9243C38.0206 21.9862 37.5512 21.1609 37.4724 20.5473C37.3803 19.8309 37.2736 19.4036 37.3848 18.5502C37.496 17.6968 37.9832 16.4884 37.9761 16.3979C37.969 16.3074 37.8668 15.8726 36.8593 15.8652C35.8517 15.8579 34.9899 16.0616 34.8885 16.3312C34.787 16.6008 34.5931 17.2075 34.4724 17.8401C34.2959 18.7659 32.4608 22.0676 31.4188 23.7948C31.078 23.1207 30.7882 22.5263 30.7278 22.0563C30.6359 21.3399 30.5291 20.9126 30.6402 20.0591C30.7515 19.2058 31.2387 17.9972 31.2316 17.9067C31.2245 17.8162 31.1224 17.3815 30.1148 17.3741C29.1072 17.3668 28.2453 17.5705 28.144 17.8401C28.0425 18.1097 27.9342 18.7396 27.7278 19.349C27.5214 19.9585 25.082 25.4661 24.4432 26.8937C24.1176 27.621 23.8343 28.2053 23.6343 28.6045C23.6338 28.6035 23.633 28.6023 23.633 28.6023C23.633 28.6023 23.6207 28.6288 23.5995 28.6736C23.4283 29.0133 23.3264 29.2013 23.3264 29.2013C23.3264 29.2013 23.3275 29.2039 23.3294 29.2083C23.1936 29.4578 23.0481 29.6895 22.976 29.6895C22.9256 29.6895 22.8248 29.0254 22.998 28.114C23.361 26.2035 24.2329 23.2239 24.2243 23.1213C24.2197 23.0687 24.3863 22.5495 23.6548 22.2781C22.9438 22.0144 22.6906 22.4542 22.6257 22.4556C22.5629 22.457 22.5161 22.611 22.5161 22.611C22.5161 22.611 23.3083 19.2604 21.0052 19.2604C19.5653 19.2604 17.5702 20.8565 16.5873 22.3032C15.9671 22.6461 14.6398 23.3803 13.2316 24.1643C12.6907 24.4653 12.1388 24.7731 11.6154 25.0653C11.5798 25.0254 11.5443 24.9853 11.5078 24.9458C8.71515 21.9266 3.55265 19.7911 3.77162 15.7321C3.85128 14.2565 4.35748 10.371 13.6914 5.65794C21.3374 1.7971 27.4584 2.85953 28.5162 5.21414C30.0274 8.57802 25.2449 14.8302 17.3045 15.7321C14.2791 16.0758 12.6861 14.8877 12.2899 14.4451C11.8728 13.9793 11.8106 13.9583 11.6548 14.0457C11.4012 14.1882 11.562 14.5994 11.6548 14.8445C11.892 15.4698 12.8648 16.5785 14.5234 17.1301C15.9826 17.6153 19.5346 17.8818 23.83 16.1981C28.6411 14.3123 32.3979 9.06647 31.2944 4.68159C30.1723 0.221903 22.8751 -1.24419 15.9688 1.24217C11.8585 2.72186 7.40894 5.0443 4.20967 8.07662C0.405657 11.6822 -0.200912 14.8203 0.0489966 16.1315C0.937135 20.7905 7.27427 23.8245 9.81195 26.0731C9.68668 26.1431 9.56925 26.2088 9.46241 26.2685C8.19015 26.9063 3.35949 29.468 2.15119 32.1747C0.780657 35.245 2.36943 37.4478 3.42126 37.7444C6.68029 38.6633 10.0245 37.0104 11.8218 34.2939C13.6187 31.5781 13.3993 28.0418 12.5745 26.4276C12.5643 26.4075 12.553 26.3879 12.5425 26.368C12.871 26.171 13.206 25.9706 13.538 25.7731C14.1856 25.3878 14.8212 25.0283 15.3728 24.7241C15.0642 25.5811 14.8381 26.6083 14.7205 28.0918C14.5824 29.8346 15.2872 32.0874 16.2096 32.9737C16.6157 33.3638 17.1043 33.373 17.414 33.373C18.4872 33.373 18.977 32.4682 19.5161 31.3981C20.1776 30.0856 20.7643 28.5578 20.7643 28.5578C20.7643 28.5578 20.0278 32.6851 22.0345 32.6851C22.7656 32.6851 23.5011 31.7244 23.8286 31.2345C23.8296 31.2399 23.83 31.2428 23.83 31.2428C23.83 31.2428 23.8491 31.2109 23.8863 31.1469C23.9622 31.0293 24.0052 30.9544 24.0052 30.9544C24.0052 30.9544 24.0067 30.9466 24.009 30.9331C24.3029 30.416 24.9547 29.2371 25.9323 27.293C27.1953 24.7812 28.4067 21.6346 28.4067 21.6346C28.4067 21.6346 28.5193 22.4039 28.8884 23.676C29.1056 24.4246 29.5669 25.252 29.9308 26.0454C29.6379 26.4573 29.4578 26.6939 29.4578 26.6939C29.4578 26.6939 29.4595 26.6983 29.4627 26.7062C29.2286 27.0212 28.9661 27.361 28.6914 27.6924C27.6946 28.8954 26.5073 30.2693 26.3483 30.6658C26.161 31.133 26.2053 31.4767 26.5672 31.7531C26.8317 31.955 27.3024 31.9864 27.7935 31.9528C28.6893 31.8918 29.3196 31.6667 29.6306 31.5296C30.1153 31.3558 30.6798 31.0826 31.2097 30.688C32.1875 29.9595 32.7773 28.9175 32.7206 27.5371C32.6892 26.7763 32.4498 26.0223 32.147 25.3105C32.2358 25.1812 32.3247 25.0508 32.414 24.9187C33.9555 22.6351 35.1512 20.1257 35.1512 20.1257C35.1512 20.1257 35.2639 20.8949 35.633 22.1671C35.8198 22.8111 36.1883 23.5135 36.5197 24.2025C35.0703 25.3959 34.1713 26.7826 33.8592 27.6924C33.2821 29.3748 33.7341 30.1372 34.5819 30.3108C34.966 30.3895 35.5083 30.2111 35.9163 30.0361C36.424 29.8655 37.034 29.5814 37.6038 29.157C38.5817 28.4285 39.5218 27.4085 39.4651 26.0282C39.4392 25.3997 39.2711 24.776 39.0429 24.1768C40.2715 23.6582 41.8623 23.3698 43.8885 23.6096C48.2352 24.1239 49.088 26.8741 48.925 28.0252C48.762 29.1764 47.8502 29.8091 47.5453 30.0002C47.2406 30.1912 47.1475 30.2575 47.1732 30.3996C47.2102 30.6062 47.3512 30.5982 47.611 30.5539C47.9689 30.4926 49.8936 29.6175 49.976 27.4928C50.0807 24.7952 47.5302 21.8322 43.0125 21.8566Z" fill="#BE5F8B"/>
</svg>